<svg width="162" height="56" viewBox="0 0 162 56" fill="none" xmlns="http://www.w3.org/2000/svg">
<path d="M4.41 45V13.5H16.74C18.99 13.5 21.015 13.875 22.815 14.625C24.645 15.375 26.205 16.455 27.495 17.865C28.785 19.275 29.775 20.94 30.465 22.86C31.155 24.78 31.5 26.91 31.5 29.25C31.5 31.59 31.155 33.735 30.465 35.685C29.775 37.605 28.785 39.27 27.495 40.68C26.235 42.06 24.69 43.125 22.86 43.875C21.03 44.625 18.99 45 16.74 45H4.41ZM9.27 40.815L9.135 40.32H16.515C18.105 40.32 19.515 40.065 20.745 39.555C22.005 39.045 23.055 38.325 23.895 37.395C24.765 36.435 25.425 35.265 25.875 33.885C26.325 32.505 26.55 30.96 26.55 29.25C26.55 27.54 26.325 26.01 25.875 24.66C25.425 23.28 24.765 22.11 23.895 21.15C23.025 20.19 21.975 19.455 20.745 18.945C19.515 18.435 18.105 18.18 16.515 18.18H9L9.27 17.775V40.815ZM47.5221 45.45C45.2121 45.45 43.1421 44.925 41.3121 43.875C39.5121 42.795 38.0871 41.34 37.0371 39.51C35.9871 37.65 35.4621 35.535 35.4621 33.165C35.4621 30.795 35.9871 28.695 37.0371 26.865C38.0871 25.005 39.5121 23.55 41.3121 22.5C43.1421 21.42 45.2121 20.88 47.5221 20.88C49.8021 20.88 51.8421 21.42 53.6421 22.5C55.4721 23.55 56.9121 25.005 57.9621 26.865C59.0121 28.695 59.5371 30.795 59.5371 33.165C59.5371 35.535 59.0121 37.65 57.9621 39.51C56.9121 41.34 55.4721 42.795 53.6421 43.875C51.8421 44.925 49.8021 45.45 47.5221 45.45ZM47.5221 41.22C48.9321 41.22 50.1921 40.875 51.3021 40.185C52.4121 39.465 53.2821 38.505 53.9121 37.305C54.5421 36.075 54.8421 34.695 54.8121 33.165C54.8421 31.605 54.5421 30.225 53.9121 29.025C53.2821 27.795 52.4121 26.835 51.3021 26.145C50.1921 25.455 48.9321 25.11 47.5221 25.11C46.1121 25.11 44.8371 25.47 43.6971 26.19C42.5871 26.88 41.7171 27.84 41.0871 29.07C40.4571 30.27 40.1571 31.635 40.1871 33.165C40.1571 34.695 40.4571 36.075 41.0871 37.305C41.7171 38.505 42.5871 39.465 43.6971 40.185C44.8371 40.875 46.1121 41.22 47.5221 41.22ZM64.5877 54.9V21.375H69.2677V26.775L68.5477 26.37C68.7277 25.47 69.2377 24.615 70.0777 23.805C70.9177 22.965 71.9377 22.29 73.1377 21.78C74.3677 21.24 75.6277 20.97 76.9177 20.97C79.0477 20.97 80.9377 21.495 82.5877 22.545C84.2377 23.595 85.5427 25.035 86.5027 26.865C87.4627 28.695 87.9427 30.795 87.9427 33.165C87.9427 35.505 87.4627 37.605 86.5027 39.465C85.5727 41.295 84.2827 42.75 82.6327 43.83C80.9827 44.88 79.1227 45.405 77.0527 45.405C75.6727 45.405 74.3377 45.135 73.0477 44.595C71.7577 44.025 70.6627 43.305 69.7627 42.435C68.8627 41.565 68.3077 40.665 68.0977 39.735L69.2677 39.105V54.9H64.5877ZM76.2877 41.13C77.6677 41.13 78.8977 40.785 79.9777 40.095C81.0577 39.405 81.9127 38.46 82.5427 37.26C83.1727 36.06 83.4877 34.695 83.4877 33.165C83.4877 31.635 83.1727 30.285 82.5427 29.115C81.9427 27.915 81.1027 26.97 80.0227 26.28C78.9427 25.59 77.6977 25.245 76.2877 25.245C74.8777 25.245 73.6327 25.59 72.5527 26.28C71.4727 26.94 70.6177 27.87 69.9877 29.07C69.3577 30.27 69.0427 31.635 69.0427 33.165C69.0427 34.695 69.3577 36.06 69.9877 37.26C70.6177 38.46 71.4727 39.405 72.5527 40.095C73.6327 40.785 74.8777 41.13 76.2877 41.13ZM104.001 45.45C101.571 45.45 99.4113 44.94 97.5213 43.92C95.6613 42.87 94.1913 41.445 93.1113 39.645C92.0613 37.845 91.5363 35.775 91.5363 33.435C91.5363 31.575 91.8363 29.88 92.4363 28.35C93.0363 26.82 93.8613 25.5 94.9113 24.39C95.9913 23.25 97.2663 22.38 98.7363 21.78C100.236 21.15 101.856 20.835 103.596 20.835C105.126 20.835 106.551 21.135 107.871 21.735C109.191 22.305 110.331 23.1 111.291 24.12C112.281 25.14 113.031 26.355 113.541 27.765C114.081 29.145 114.336 30.66 114.306 32.31L114.261 34.29H94.9563L93.9213 30.6H110.256L109.581 31.365V30.285C109.491 29.295 109.161 28.41 108.591 27.63C108.021 26.85 107.301 26.235 106.431 25.785C105.561 25.335 104.616 25.11 103.596 25.11C101.976 25.11 100.611 25.425 99.5013 26.055C98.3913 26.655 97.5513 27.555 96.9813 28.755C96.4113 29.925 96.1263 31.38 96.1263 33.12C96.1263 34.77 96.4713 36.21 97.1613 37.44C97.8513 38.64 98.8263 39.57 100.086 40.23C101.346 40.89 102.801 41.22 104.451 41.22C105.621 41.22 106.701 41.025 107.691 40.635C108.711 40.245 109.806 39.54 110.976 38.52L113.316 41.805C112.596 42.525 111.711 43.155 110.661 43.695C109.641 44.235 108.546 44.67 107.376 45C106.236 45.3 105.111 45.45 104.001 45.45ZM132.754 45.27C130.324 45.27 128.149 44.745 126.229 43.695C124.309 42.615 122.794 41.145 121.684 39.285C120.604 37.395 120.064 35.265 120.064 32.895V13.455H124.924V32.49C124.924 34.02 125.284 35.4 126.004 36.63C126.724 37.83 127.669 38.79 128.839 39.51C130.039 40.23 131.344 40.59 132.754 40.59C134.254 40.59 135.604 40.23 136.804 39.51C138.034 38.79 139.009 37.83 139.729 36.63C140.449 35.4 140.809 34.02 140.809 32.49V13.455H145.444V32.895C145.444 35.265 144.889 37.395 143.779 39.285C142.699 41.145 141.199 42.615 139.279 43.695C137.359 44.745 135.184 45.27 132.754 45.27ZM153.419 45V21.375H158.054V45H153.419ZM155.669 16.155C154.679 16.155 153.914 15.9 153.374 15.39C152.834 14.88 152.564 14.16 152.564 13.23C152.564 12.36 152.834 11.655 153.374 11.115C153.944 10.575 154.709 10.305 155.669 10.305C156.659 10.305 157.424 10.56 157.964 11.07C158.504 11.58 158.774 12.3 158.774 13.23C158.774 14.1 158.489 14.805 157.919 15.345C157.379 15.885 156.629 16.155 155.669 16.155Z" fill="white"/>
<circle cx="48" cy="33" r="14" fill="white"/>
<path d="M48 43.6342C52.4048 43.6342 55.9757 40.0633 55.9757 35.6585C55.9757 34.5951 55.9757 32.4682 53.8488 29.8097C53.8488 29.8097 53.7429 32.8443 51.6435 32.4053C48.2479 31.6953 52.6313 25.0274 46.4049 22.3657C46.4049 27.6828 40.0244 29.278 40.0244 35.6585C40.0244 40.0633 43.5952 43.6342 48 43.6342Z" fill="#0A0A0A"/>
</svg>
