<svg width="26" height="26" viewBox="0 0 26 26" fill="none" xmlns="http://www.w3.org/2000/svg">
<path d="M11.5932 1.80176C12.0765 0.495833 13.9235 0.495832 14.4068 1.80176L16.812 8.30178C16.9639 8.71236 17.2876 9.03607 17.6982 9.188L24.1982 11.5932C25.5042 12.0765 25.5042 13.9235 24.1982 14.4068L17.6982 16.812C17.2876 16.9639 16.9639 17.2876 16.812 17.6982L14.4068 24.1982C13.9235 25.5042 12.0765 25.5042 11.5932 24.1982L9.188 17.6982C9.03607 17.2876 8.71236 16.9639 8.30178 16.812L1.80176 14.4068C0.495833 13.9235 0.495832 12.0765 1.80176 11.5932L8.30178 9.188C8.71236 9.03607 9.03607 8.71236 9.188 8.30178L11.5932 1.80176Z" fill="#E64F21"/>
</svg>
