<svg width="24" height="24" viewBox="0 0 24 24" fill="none" xmlns="http://www.w3.org/2000/svg">
<path d="M19.7071 7.2929C19.4142 7 18.9428 7 18 7C17.0572 7 16.5858 7 16.2929 7.2929M19.7071 7.2929C20 7.5858 20 8.0572 20 9C20 9.9428 20 10.4142 19.7071 10.7071M16.2929 7.2929C16 7.5858 16 8.0572 16 9C16 9.9428 16 10.4142 16.2929 10.7071M16.2929 10.7071C16.5858 11 17.0572 11 18 11C18.9428 11 19.4142 11 19.7071 10.7071" stroke="white" stroke-width="1.5" stroke-linecap="round" stroke-linejoin="round"/>
<path d="M5 9H10" stroke="white" stroke-width="1.5" stroke-linecap="round" stroke-linejoin="round"/>
<path d="M10 9H15" stroke="white" stroke-width="1.5" stroke-linecap="round" stroke-linejoin="round"/>
<path d="M5.2929 15.7071C5.5858 16 6.0572 16 7 16C7.9428 16 8.4142 16 8.7071 15.7071M5.2929 15.7071C5 15.4142 5 14.9428 5 14C5 13.0572 5 12.5858 5.2929 12.2929M8.7071 15.7071C9 15.4142 9 14.9428 9 14C9 13.0572 9 12.5858 8.7071 12.2929M8.7071 12.2929C8.4142 12 7.9428 12 7 12C6.0572 12 5.5858 12 5.2929 12.2929" stroke="white" stroke-width="1.5" stroke-linecap="round" stroke-linejoin="round"/>
<path d="M20 14L15 14" stroke="white" stroke-width="1.5" stroke-linecap="round" stroke-linejoin="round"/>
<path d="M15 14L10 14" stroke="white" stroke-width="1.5" stroke-linecap="round" stroke-linejoin="round"/>
</svg>
